<svg xmlns="http://www.w3.org/2000/svg" viewBox="0 0 64 64" width="64" height="64">
  <!-- Speech bubble to represent text -->
  <path d="M12,12h40c2.2,0,4,1.8,4,4v28c0,2.2-1.8,4-4,4H22l-6,6v-6h-4c-2.2,0-4-1.8-4-4V16C8,13.8,9.8,12,12,12z" 
        fill="#f7f9fc" stroke="#2c3e50" stroke-width="2" />

  <!-- Representing text as horizontal lines -->
  <line x1="20" y1="20" x2="34" y2="20" stroke="#333" stroke-width="2" />
  <line x1="20" y1="26" x2="30" y2="26" stroke="#333" stroke-width="2" />
  <line x1="20" y1="32" x2="28" y2="32" stroke="#333" stroke-width="2" />

  <!-- Simple bar chart for insights -->
  <rect x="40" y="28" width="4" height="8" fill="#2196f3" />
  <rect x="46" y="24" width="4" height="12" fill="#2196f3" />
  <rect x="52" y="20" width="4" height="16" fill="#2196f3" />
</svg>